<svg xmlns="http://www.w3.org/2000/svg" version="1.1" xmlns:xlink="http://www.w3.org/1999/xlink" xmlns:svgjs="http://svgjs.com/svgjs" width="1440" height="800" preserveAspectRatio="none" viewBox="0 0 1440 800"><g mask="url(&quot;#SvgjsMask1084&quot;)" fill="none"><rect width="1440" height="800" x="0" y="0" fill="rgba(33, 106, 230, 1)"></rect><path d="M77 800L877 0L1541.5 0L741.5 800z" fill="url(#SvgjsLinearGradient1085)"></path><path d="M521.2 800L1321.2 0L2024.7 0L1224.7 800z" fill="url(#SvgjsLinearGradient1085)"></path><path d="M1436 800L636 0L484.5 0L1284.5 800z" fill="url(#SvgjsLinearGradient1086)"></path><path d="M923.8 800L123.79999999999995 0L-425.20000000000005 0L374.79999999999995 800z" fill="url(#SvgjsLinearGradient1086)"></path><path d="M756.0119818388157 800L1440 116.0119818388157L1440 800z" fill="url(#SvgjsLinearGradient1085)"></path><path d="M0 800L683.9880181611843 800L 0 116.0119818388157z" fill="url(#SvgjsLinearGradient1086)"></path></g><defs><mask id="SvgjsMask1084"><rect width="1440" height="800" fill="#ffffff"></rect></mask><linearGradient x1="0%" y1="100%" x2="100%" y2="0%" id="SvgjsLinearGradient1085"><stop stop-color="rgba(12, 10, 242, 0.49)" offset="0"></stop><stop stop-opacity="0" stop-color="rgba(12, 10, 242, 0.49)" offset="0.66"></stop></linearGradient><linearGradient x1="100%" y1="100%" x2="0%" y2="0%" id="SvgjsLinearGradient1086"><stop stop-color="rgba(12, 10, 242, 0.49)" offset="0"></stop><stop stop-opacity="0" stop-color="rgba(12, 10, 242, 0.49)" offset="0.66"></stop></linearGradient></defs></svg>