<svg xmlns="http://www.w3.org/2000/svg" version="1.1" xmlns:xlink="http://www.w3.org/1999/xlink" xmlns:svgjs="http://svgjs.com/svgjs" width="1440" height="800" preserveAspectRatio="none" viewBox="0 0 1440 800"><g clip-path="url(&quot;#SvgjsClipPath1028&quot;)" fill="none"><rect width="1440" height="800" x="0" y="0" fill="rgba(33, 106, 230, 1)"></rect><circle r="133.335" cx="-123.3" cy="-71.44" stroke="#91aadc" stroke-opacity="0.48" stroke-width="2"></circle><circle r="133.335" cx="490.71" cy="516.39" stroke="#91aadc" stroke-opacity="0.48" stroke-width="2"></circle><circle r="264.37" cx="676.27" cy="707.19" stroke="#91aadc" stroke-opacity="0.48" stroke-width="2"></circle><circle r="170.565" cx="1418.51" cy="227.7" stroke="#91aadc" stroke-opacity="0.48" stroke-width="2"></circle><circle r="102.02" cx="806.05" cy="56.28" stroke="#91aadc" stroke-opacity="0.48" stroke-width="2"></circle><circle r="148.48" cx="1255.71" cy="80.78" stroke="#91aadc" stroke-opacity="0.48" stroke-width="2"></circle><circle r="176.65" cx="60.19" cy="586.84" stroke="#91aadc" stroke-opacity="0.48" stroke-width="2"></circle><circle r="245.765" cx="1066.64" cy="793.71" stroke="#91aadc" stroke-opacity="0.48" stroke-width="2"></circle><circle r="103.085" cx="452.31" cy="719.88" stroke="#91aadc" stroke-opacity="0.48" stroke-width="2"></circle><circle r="196.64" cx="1276.62" cy="506.72" stroke="#91aadc" stroke-opacity="0.48" stroke-width="2"></circle><circle r="125.155" cx="115.39" cy="669.94" stroke="#91aadc" stroke-opacity="0.48" stroke-width="2"></circle><circle r="168.755" cx="254.83" cy="366.53" stroke="#91aadc" stroke-opacity="0.48" stroke-width="2"></circle><circle r="71.595" cx="556.85" cy="427.68" stroke="#91aadc" stroke-opacity="0.48" stroke-width="2"></circle><circle r="210.475" cx="745.78" cy="668.35" stroke="#91aadc" stroke-opacity="0.48" stroke-width="2"></circle><circle r="138.88" cx="446.92" cy="277.27" stroke="#91aadc" stroke-opacity="0.48" stroke-width="2"></circle><circle r="133.375" cx="968.78" cy="155.82" stroke="#91aadc" stroke-opacity="0.48" stroke-width="2"></circle><circle r="69.75" cx="699.07" cy="109.8" stroke="#91aadc" stroke-opacity="0.48" stroke-width="2"></circle><circle r="75.655" cx="851.73" cy="293.05" stroke="#91aadc" stroke-opacity="0.48" stroke-width="2"></circle><circle r="264.885" cx="426.75" cy="181.75" stroke="#91aadc" stroke-opacity="0.48" stroke-width="2"></circle><circle r="201.835" cx="1427.04" cy="292.87" stroke="#91aadc" stroke-opacity="0.48" stroke-width="2"></circle><circle r="96.155" cx="187.53" cy="258.6" stroke="#91aadc" stroke-opacity="0.48" stroke-width="2"></circle></g><defs><clipPath id="SvgjsClipPath1028"><rect width="1440" height="800" x="0" y="0"></rect></clipPath></defs></svg>