<svg xmlns="http://www.w3.org/2000/svg" version="1.1" xmlns:xlink="http://www.w3.org/1999/xlink" xmlns:svgjs="http://svgjs.com/svgjs" width="1450" height="800" preserveAspectRatio="none" viewBox="0 0 1450 800"><g mask="url(&quot;#SvgjsMask1108&quot;)" fill="none"><rect width="1450" height="800" x="0" y="0" fill="rgba(238, 238, 238, 1)"></rect><path d="M46 800L846 0L1134 0L334 800z" fill="url(#SvgjsLinearGradient1109)"></path><path d="M574.5 800L1374.5 0L1736 0L936 800z" fill="url(#SvgjsLinearGradient1109)"></path><path d="M1443 800L643 0L508 0L1308 800z" fill="url(#SvgjsLinearGradient1110)"></path><path d="M958.5 800L158.5 0L-138.5 0L661.5 800z" fill="url(#SvgjsLinearGradient1110)"></path><path d="M921.0614601216806 800L1450 271.0614601216806L1450 800z" fill="url(#SvgjsLinearGradient1109)"></path><path d="M0 800L528.9385398783194 800L 0 271.0614601216806z" fill="url(#SvgjsLinearGradient1110)"></path></g><defs><mask id="SvgjsMask1108"><rect width="1450" height="800" fill="#ffffff"></rect></mask><linearGradient x1="0%" y1="100%" x2="100%" y2="0%" id="SvgjsLinearGradient1109"><stop stop-color="rgba(98, 96, 96, 0.4)" offset="0"></stop><stop stop-opacity="0" stop-color="rgba(98, 96, 96, 0.4)" offset="0.66"></stop></linearGradient><linearGradient x1="100%" y1="100%" x2="0%" y2="0%" id="SvgjsLinearGradient1110"><stop stop-color="rgba(98, 96, 96, 0.4)" offset="0"></stop><stop stop-opacity="0" stop-color="rgba(98, 96, 96, 0.4)" offset="0.66"></stop></linearGradient></defs></svg>