<svg xmlns="http://www.w3.org/2000/svg" version="1.1" xmlns:xlink="http://www.w3.org/1999/xlink" xmlns:svgjs="http://svgjs.com/svgjs" width="1550" height="800" preserveAspectRatio="none" viewBox="0 0 1550 800"><g mask="url(&quot;#SvgjsMask1070&quot;)" fill="none"><rect width="1550" height="800" x="0" y="0" fill="rgba(255, 255, 255, 1)"></rect><path d="M -811.3670126742584,540 C -707.97,475.4 -501.17,215 -294.3670126742583,217 C -87.57,219 15.83,530.8 222.63298732574168,550 C 429.43,569.2 532.83,331.4 739.6329873257416,313 C 946.43,294.6 1094.56,473.6 1256.6329873257416,458 C 1418.71,442.4 1491.33,279.6 1550,235" stroke="rgba(33, 106, 230, 0.38)" stroke-width="2"></path><path d="M -710.1905305106193,494 C -606.79,442.2 -399.99,222.2 -193.1905305106193,235 C 13.61,247.8 117.01,541.2 323.8094694893807,558 C 530.61,574.8 634.01,338.4 840.8094694893807,319 C 1047.61,299.6 1215.97,471.6 1357.8094694893807,461 C 1499.65,450.4 1511.56,305 1550,266" stroke="rgba(33, 106, 230, 0.38)" stroke-width="2"></path><path d="M -614.9286374587002,272 C -511.53,327.4 -304.73,537.8 -97.92863745870017,549 C 108.87,560.2 212.27,352.2 419.07136254129983,328 C 625.87,303.8 729.27,445.6 936.0713625412998,428 C 1142.87,410.4 1330.29,231.2 1453.0713625412998,240 C 1575.86,248.8 1530.61,425.6 1550,472" stroke="rgba(33, 106, 230, 0.38)" stroke-width="2"></path><path d="M -176.94077926107428,427 C -73.54,406.4 133.26,318.6 340.0592207389257,324 C 546.86,329.4 650.26,478.6 857.0592207389257,454 C 1063.86,429.4 1167.26,187.8 1374.0592207389257,201 C 1580.86,214.2 1855.87,513 1891.0592207389257,520 C 1926.25,527 1618.21,292.8 1550,236" stroke="rgba(33, 106, 230, 0.38)" stroke-width="2"></path></g><defs><mask id="SvgjsMask1070"><rect width="1550" height="800" fill="#ffffff"></rect></mask></defs></svg>